<?xml version="1.0" encoding="UTF-8" standalone="no"?>
<svg
   data-name="Layer 2"
   version="1.1"
   viewBox="0 0 596.64 116.88"
   id="svg9"
   sodipodi:docname="esphome_logo_dark.svg"
   inkscape:version="1.4 (e7c3feb100, 2024-10-09)"
   xmlns:inkscape="http://www.inkscape.org/namespaces/inkscape"
   xmlns:sodipodi="http://sodipodi.sourceforge.net/DTD/sodipodi-0.dtd"
   xmlns="http://www.w3.org/2000/svg"
   xmlns:svg="http://www.w3.org/2000/svg">
  <sodipodi:namedview
     id="namedview9"
     pagecolor="#ffffff"
     bordercolor="#000000"
     borderopacity="0.25"
     inkscape:showpageshadow="2"
     inkscape:pageopacity="0.0"
     inkscape:pagecheckerboard="0"
     inkscape:deskcolor="#d1d1d1"
     inkscape:zoom="3.605189"
     inkscape:cx="298.32001"
     inkscape:cy="58.388063"
     inkscape:window-width="2256"
     inkscape:window-height="1432"
     inkscape:window-x="0"
     inkscape:window-y="0"
     inkscape:window-maximized="1"
     inkscape:current-layer="svg9" />
  <defs
     id="defs1">
    <style
       id="style1">.cls-1{fill:#1d2126;stroke-width:0}</style>
  </defs>
  <g
     data-name="Layer 1"
     id="g9"
     style="fill:#ffffff">
    <g
       fill="#fff"
       id="g8"
       style="fill:#ffffff">
      <path
         class="cls-1"
         d="M211.37,84.7v11.25h-43.5V25.87h43.5v11.34h-31.59v18.14h28.22v10.55h-28.22v18.8h31.59Z"
         id="path1"
         style="fill:#ffffff" />
      <path
         class="cls-1"
         d="m245.41 24.6c6.41 0 11.73 1.56 15.98 4.69 4.25 3.12 6.86 7.3 7.83 12.52l-11.2 3.05c-0.63-3-2.09-5.31-4.38-6.94-2.3-1.62-5.13-2.44-8.51-2.44-3.63 0-6.5 0.87-8.62 2.6-2.13 1.73-3.19 4.04-3.19 6.91 0 4.53 2.81 7.47 8.44 8.81l11.44 2.86c5.91 1.53 10.33 3.96 13.27 7.29s4.41 7.43 4.41 12.3c0 6.25-2.27 11.3-6.8 15.16s-10.59 5.79-18.19 5.79c-6.84 0-12.63-1.61-17.34-4.83-4.66-3.34-7.41-7.75-8.25-13.22l11.2-2.91c0.41 3.09 1.95 5.52 4.62 7.27s6.07 2.62 10.2 2.62 7.09-0.84 9.35-2.51c2.27-1.67 3.4-3.94 3.4-6.82 0-4.5-2.81-7.47-8.44-8.91l-11.44-2.77c-5.88-1.34-10.29-3.73-13.24-7.15s-4.43-7.6-4.43-12.54c0-6.19 2.2-11.21 6.59-15.07s10.16-5.79 17.32-5.79z"
         id="path2"
         style="fill:#ffffff" />
      <path
         class="cls-1"
         d="m332.92 48.7c0 6.88-2.09 12.44-6.26 16.69s-9.79 6.38-16.85 6.38h-15.75v24.19h-11.91v-70.09h27.75c7.12 0 12.74 2.06 16.85 6.16 4.11 4.11 6.16 9.66 6.16 16.66zm-12.47-0.28c0-3.53-1.1-6.4-3.3-8.6s-5.32-3.3-9.35-3.3h-13.73v24.8h13.55c4.12 0 7.3-1.17 9.52-3.52 2.22-2.34 3.33-5.47 3.33-9.38z"
         id="path3"
         style="fill:#ffffff" />
      <path
         class="cls-1"
         d="M343.56,25.87h11.91v29.3l30.89.09v-29.39h12v70.08h-12v-30.14l-30.89-.09v30.23h-11.91V25.87Z"
         id="path4"
         style="fill:#ffffff" />
      <path
         class="cls-1"
         d="m434.17 47.29c7.25 0 13.16 2.33 17.72 6.98 4.56 4.66 6.84 10.64 6.84 17.95s-2.28 13.25-6.84 17.91-10.47 6.98-17.72 6.98-13.25-2.33-17.81-6.98c-4.56-4.66-6.84-10.62-6.84-17.91s2.28-13.34 6.84-17.98 10.5-6.96 17.81-6.96zm0 39.61c3.87 0 7.02-1.37 9.45-4.1 2.42-2.73 3.63-6.29 3.63-10.66s-1.21-7.91-3.63-10.62c-2.42-2.7-5.57-4.05-9.45-4.05s-7.17 1.35-9.61 4.05-3.66 6.24-3.66 10.62 1.22 7.93 3.66 10.66 5.64 4.1 9.61 4.1z"
         id="path5"
         style="fill:#ffffff" />
      <path
         class="cls-1"
         d="m540.67 65.81v30.14h-11.02v-28.41c0-3.28-0.84-5.84-2.53-7.69-1.69-1.84-3.98-2.77-6.89-2.77-3.09 0-5.56 1.01-7.41 3.02-1.84 2.02-2.77 4.84-2.77 8.46v27.38h-11.16v-28.41c0-3.28-0.82-5.84-2.46-7.69-1.64-1.84-3.91-2.77-6.82-2.77-3.09 0-5.58 1.01-7.45 3.02s-2.81 4.84-2.81 8.46v27.38h-11.34v-47.34h10.55l0.38 4.55c2.75-4.03 7.23-6.05 13.45-6.05 3.62 0 6.77 0.75 9.42 2.25 2.66 1.5 4.67 3.69 6.05 6.56 1.16-2.75 3.07-4.91 5.74-6.47s5.85-2.34 9.54-2.34c5.37 0 9.64 1.66 12.8 4.97s4.73 7.89 4.73 13.73z"
         id="path6"
         style="fill:#ffffff" />
      <path
         class="cls-1"
         d="m596.64 76.45h-36.28c0.38 3.56 1.72 6.28 4.03 8.16s5.25 2.81 8.81 2.81c5.78 0 9.83-2.41 12.14-7.22l9.47 3.75c-1.78 4.16-4.59 7.41-8.41 9.75-3.83 2.34-8.23 3.52-13.2 3.52-7 0-12.68-2.29-17.04-6.87s-6.54-10.59-6.54-18.02 2.2-13.48 6.59-18.14 10.13-6.98 17.23-6.98 12.58 2.3 16.83 6.89 6.38 10.64 6.38 18.14v4.22zm-36.09-7.97h24.56c-0.22-3.84-1.38-6.77-3.49-8.79s-4.95-3.02-8.51-3.02-6.41 1.02-8.62 3.07c-2.22 2.05-3.53 4.96-3.94 8.74z"
         id="path7"
         style="fill:#ffffff" />
      <path
         class="cls-1"
         d="M114.7,51.58L65.3,2.19c-2.92-2.92-7.69-2.92-10.61,0L5.3,51.58c-2.92,2.92-5.3,8.68-5.3,12.8v45c0,4.12,3.38,7.5,7.5,7.5h29.5V42.21c0-1.66,1.34-3,3-3h40c1.66,0,3,1.34,3,3v12c0,1.66-1.34,3-3,3h-25v6h25c1.66,0,3,1.34,3,3v12c0,1.66-1.34,3-3,3h-25v6h25c1.66,0,3,1.34,3,3v12c0,1.66-1.34,3-3,3h-28c-1.66,0-3-1.34-3-3s1.34-3,3-3h25v-6h-25c-1.66,0-3-1.34-3-3v-12c0-1.66,1.34-3,3-3h25v-6h-25c-1.66,0-3-1.34-3-3v-12c0-1.66,1.34-3,3-3h25v-6h-34v71.67h69.5c4.12,0,7.5-3.38,7.5-7.5v-45c0-4.12-2.39-9.89-5.3-12.8Z"
         id="path8"
         style="fill:#ffffff" />
    </g>
  </g>
</svg>
